<svg width="722" height="456" viewBox="0 0 722 456" fill="none" xmlns="http://www.w3.org/2000/svg">
<g clip-path="url(#clip0)">
<rect width="722.277" height="456" rx="19.9708" fill="url(#paint0_linear)"/>
<text fill="#FBFBFB" xml:space="preserve" style="white-space: pre" font-family="Poppins" font-size="22" font-weight="600" letter-spacing="0em"><tspan x="219.679" y="358.711">URQUIZA N F B SILVA</tspan></text>
<circle cx="582.482" cy="88.2041" r="46.5985" fill="#E51B24"/>
<circle cx="639.066" cy="88.2041" r="46.5985" fill="#F79E1D"/>
<path fill-rule="evenodd" clip-rule="evenodd" d="M610.774 124.817C621.903 116.398 629.08 103.13 629.08 88.2043C629.08 73.2788 621.903 60.011 610.774 51.5912C599.645 60.011 592.467 73.2788 592.467 88.2043C592.467 103.13 599.645 116.398 610.774 124.817Z" fill="#F16825"/>
<rect x="80.7153" y="157.27" width="98.1898" height="68.2336" rx="7.48905" fill="url(#paint1_linear)" stroke="black" stroke-width="1.66423"/>
<path d="M81.5474 179.738H108.175M108.175 179.738C113.731 187.225 113.322 191.829 108.175 200.541M108.175 179.738C114.151 163.548 120.657 157.271 127.314 157.271C133.971 157.271 140.363 162.047 143.956 170.584M108.175 200.541H81.5474M108.175 200.541C114.715 216.708 117.328 225.504 127.314 225.504C137.299 225.504 141.669 219.264 148.117 200.541M148.117 200.541C144.426 193.047 144.624 188.454 148.117 179.738H178.073M148.117 200.541H178.073" stroke="black" stroke-width="1.99708" stroke-linecap="round" stroke-linejoin="round"/>
<circle cx="128.146" cy="164.759" r="1.66423" fill="black"/>
<path d="M133.89 370.668L135.19 371.002L135.232 370.837V370.668H133.89ZM131.877 372.681V374.023H132.034L132.187 373.987L131.877 372.681ZM119.798 372.681V371.339H119.798L119.798 372.681ZM118.456 325.707H119.798V325.707L118.456 325.707ZM107.719 316.312L107.719 314.97L107.719 314.97L107.719 316.312ZM92.2843 316.312V317.654H92.2844L92.2843 316.312ZM83.5605 372.681L83.4352 374.017L83.4978 374.023H83.5605V372.681ZM94.9686 372.681L94.9686 371.339H94.9686V372.681ZM109.061 302.891L109.061 304.233H109.061L109.061 302.891ZM98.3239 370.668V309.601H95.6397V370.668H98.3239ZM98.3239 309.601C98.3239 306.479 100.904 304.233 104.363 304.233V301.548C99.7698 301.548 95.6397 304.671 95.6397 309.601H98.3239ZM132.548 321.68V370.668H135.232V321.68H132.548ZM132.59 370.334C132.448 370.889 132.335 371.036 132.283 371.089C132.239 371.134 132.106 371.247 131.567 371.375L132.187 373.987C132.919 373.813 133.632 373.545 134.196 372.972C134.753 372.406 135.011 371.697 135.19 371.002L132.59 370.334ZM131.877 371.339H119.798V374.023H131.877V371.339ZM119.798 371.339C119.554 371.339 119.514 371.305 119.567 371.329C119.602 371.344 119.657 371.376 119.713 371.43C119.769 371.484 119.804 371.538 119.824 371.577C119.853 371.636 119.83 371.626 119.814 371.437C119.799 371.253 119.798 371.021 119.798 370.668H117.114C117.114 370.986 117.113 371.341 117.139 371.66C117.165 371.974 117.226 372.384 117.423 372.778C117.644 373.22 118 373.569 118.477 373.782C118.907 373.973 119.371 374.023 119.798 374.023L119.798 371.339ZM119.798 370.668V325.707H117.114V370.668H119.798ZM119.798 325.707C119.798 322.672 118.651 319.953 116.507 318.003C114.369 316.06 111.342 314.97 107.719 314.97L107.719 317.654C110.806 317.654 113.147 318.577 114.701 319.989C116.247 321.394 117.114 323.373 117.114 325.707L119.798 325.707ZM107.719 314.97L92.2843 314.97L92.2844 317.654L107.719 317.654L107.719 314.97ZM92.2843 314.97C89.029 314.97 86.0191 315.873 83.7962 317.71C81.544 319.57 80.2052 322.305 80.2052 325.707H82.8895C82.8895 323.068 83.8994 321.106 85.5058 319.779C87.1416 318.428 89.5001 317.654 92.2843 317.654V314.97ZM80.2052 325.707V370.668H82.8895V325.707H80.2052ZM80.2052 370.668C80.2052 371.826 80.4727 372.903 81.424 373.519C81.8395 373.787 82.2734 373.886 82.594 373.934C82.8802 373.978 83.2553 374 83.4352 374.017L83.6859 371.345C83.5466 371.332 83.3823 371.319 83.2796 371.311C83.1596 371.301 83.0704 371.291 82.9958 371.28C82.8386 371.256 82.8361 371.235 82.882 371.265C82.9583 371.314 82.9785 371.373 82.9652 371.338C82.94 371.272 82.8895 371.081 82.8895 370.668H80.2052ZM83.5605 374.023H94.9686V371.339H83.5605V374.023ZM94.9686 374.023C95.8465 374.023 96.7515 373.803 97.4275 373.127C98.1035 372.451 98.3239 371.546 98.3239 370.668H95.6397C95.6397 370.895 95.6107 371.04 95.5827 371.124C95.5568 371.202 95.5333 371.225 95.5295 371.229C95.5256 371.232 95.5025 371.256 95.4249 371.282C95.3409 371.31 95.1963 371.339 94.9686 371.339L94.9686 374.023ZM104.363 304.233C108.589 304.233 106.377 304.233 109.061 304.233L109.061 301.548C106.377 301.548 108.589 301.548 104.363 301.548V304.233ZM109.061 304.233C116.111 304.233 122.014 306.795 126.145 310.29C130.315 313.819 132.548 318.173 132.548 321.68H135.232C135.232 317.135 132.432 312.094 127.879 308.241C123.286 304.355 116.774 301.549 109.061 301.548L109.061 304.233Z" fill="white"/>
<path d="M143.285 318.325L141.985 317.991L141.943 318.155V318.325H143.285ZM145.298 316.312V314.97H145.141L144.988 315.006L145.298 316.312ZM157.377 316.312V317.654H157.377L157.377 316.312ZM158.719 363.286H157.377V363.286L158.719 363.286ZM169.456 372.681L169.456 374.023L169.456 374.023L169.456 372.681ZM184.891 372.681V371.339H184.891L184.891 372.681ZM193.615 316.312L193.74 314.975L193.677 314.97H193.615V316.312ZM182.206 316.312L182.206 317.654H182.206V316.312ZM168.114 386.102L168.114 384.76H168.114L168.114 386.102ZM178.851 318.325V379.392H181.535V318.325H178.851ZM178.851 379.392C178.851 382.514 176.271 384.76 172.812 384.76V387.444C177.405 387.444 181.535 384.322 181.535 379.392H178.851ZM144.627 367.312V318.325H141.943V367.312H144.627ZM144.585 318.659C144.727 318.104 144.84 317.957 144.892 317.904C144.936 317.859 145.069 317.745 145.608 317.618L144.988 315.006C144.256 315.179 143.543 315.447 142.979 316.021C142.422 316.587 142.164 317.296 141.985 317.991L144.585 318.659ZM145.298 317.654H157.377V314.97H145.298V317.654ZM157.377 317.654C157.621 317.654 157.661 317.688 157.608 317.664C157.573 317.648 157.518 317.617 157.462 317.563C157.406 317.509 157.371 317.454 157.351 317.415C157.322 317.357 157.345 317.367 157.361 317.556C157.376 317.74 157.377 317.972 157.377 318.325H160.061C160.061 318.007 160.062 317.652 160.036 317.333C160.01 317.018 159.949 316.609 159.752 316.215C159.531 315.773 159.175 315.423 158.698 315.211C158.268 315.02 157.804 314.97 157.377 314.97L157.377 317.654ZM157.377 318.325V363.286H160.061V318.325H157.377ZM157.377 363.286C157.377 366.321 158.524 369.04 160.669 370.99C162.806 372.933 165.833 374.023 169.456 374.023L169.456 371.339C166.369 371.339 164.028 370.416 162.474 369.004C160.928 367.598 160.061 365.62 160.061 363.286L157.377 363.286ZM169.456 374.023L184.891 374.023L184.891 371.339L169.456 371.339L169.456 374.023ZM184.891 374.023C188.146 374.023 191.156 373.119 193.379 371.283C195.631 369.422 196.97 366.687 196.97 363.286H194.286C194.286 365.924 193.276 367.887 191.669 369.214C190.033 370.565 187.675 371.339 184.891 371.339V374.023ZM196.97 363.286V318.325H194.286V363.286H196.97ZM196.97 318.325C196.97 317.167 196.702 316.09 195.751 315.474C195.336 315.205 194.902 315.107 194.581 315.058C194.295 315.015 193.92 314.992 193.74 314.975L193.489 317.648C193.628 317.661 193.793 317.673 193.895 317.682C194.015 317.692 194.105 317.701 194.179 317.713C194.336 317.736 194.339 317.758 194.293 317.728C194.217 317.678 194.197 317.62 194.21 317.654C194.235 317.72 194.286 317.912 194.286 318.325H196.97ZM193.615 314.97H182.206V317.654H193.615V314.97ZM182.206 314.97C181.329 314.97 180.424 315.19 179.748 315.866C179.072 316.542 178.851 317.447 178.851 318.325H181.535C181.535 318.097 181.564 317.953 181.592 317.869C181.618 317.791 181.642 317.768 181.646 317.764C181.649 317.76 181.673 317.737 181.75 317.711C181.834 317.683 181.979 317.654 182.206 317.654L182.206 314.97ZM172.812 384.76C168.586 384.76 170.798 384.76 168.114 384.76L168.114 387.444C170.798 387.444 168.586 387.444 172.812 387.444V384.76ZM168.114 384.76C161.064 384.76 155.161 382.198 151.03 378.702C146.86 375.174 144.627 370.82 144.627 367.312H141.943C141.943 371.857 144.743 376.898 149.296 380.752C153.889 384.638 160.401 387.444 168.114 387.444L168.114 384.76Z" fill="white"/>
<path d="M205.615 198.153C208.102 193.178 208.931 189.033 205.615 183.229M213.076 201.469C216.393 195.665 217.222 187.375 213.076 180.742M220.538 205.615C226.342 195.665 225.513 184.058 220.538 176.596M228 209.76C234.633 197.324 235.462 184.058 228 172.451" stroke="white" stroke-width="3.31636"/>
<text fill="white" xml:space="preserve" style="white-space: pre" font-family="Poppins" font-size="19.9708" font-weight="bold" letter-spacing="0.085em"><tspan x="540.876" y="155.128">mastercard</tspan></text>
</g>
<defs>
<linearGradient id="paint0_linear" x1="0" y1="0" x2="722.277" y2="456" gradientUnits="userSpaceOnUse">
<stop stop-color="#4A156D"/>
<stop offset="1" stop-color="#CC54F0"/>
</linearGradient>
<linearGradient id="paint1_linear" x1="175.577" y1="223.839" x2="82.3795" y2="158.102" gradientUnits="userSpaceOnUse">
<stop stop-color="#D6D6D6"/>
<stop offset="1" stop-color="#F4F4F4"/>
</linearGradient>
<clipPath id="clip0">
<rect width="722" height="456" fill="white"/>
</clipPath>
</defs>
</svg>
