<svg width="722" height="456" viewBox="0 0 722 456" fill="none" xmlns="http://www.w3.org/2000/svg">
<rect width="721.802" height="455.7" rx="19.9577" transform="matrix(1 0 0 -1 0 455.7)" fill="url(#paint0_linear)"/>
<text transform="matrix(1 0 0 -1 42.0099 296.917)" fill="white" xml:space="preserve" style="white-space: pre" font-family="Poppins" font-size="25.6331" font-weight="bold" letter-spacing="0.085em"><tspan x="0" y="27.9716">platinum</tspan></text>
<rect width="722" height="104.979" transform="matrix(1 0 0 -1 0 420.966)" fill="#D9D9D9"/>
<text transform="matrix(1 0 0 -1 82.5957 57.6746)" fill="white" xml:space="preserve" style="white-space: pre" font-family="Poppins" font-size="22.785" font-weight="bold" letter-spacing="0.085em"><tspan x="0" y="24.9748">05/16</tspan></text>
<text transform="matrix(1 0 0 -1 199.369 57.6746)" fill="white" xml:space="preserve" style="white-space: pre" font-family="Poppins" font-size="22.785" font-weight="bold" letter-spacing="0.085em"><tspan x="0" y="24.9748">09/29</tspan></text>
<text transform="matrix(1 0 0 -1 332.519 57.6746)" fill="white" xml:space="preserve" style="white-space: pre" font-family="Poppins" font-size="22.785" font-weight="bold" letter-spacing="0.085em"><tspan x="0" y="24.9748">123</tspan></text>
<text transform="matrix(1 0 0 -1 46.9941 56.9625)" fill="white" xml:space="preserve" style="white-space: pre" font-family="Poppins" font-size="7.12032" font-weight="bold" letter-spacing="0.045em"><tspan x="18.5401" y="15.9921">E</tspan></text>
<text transform="matrix(1 0 0 -1 46.9941 56.9625)" fill="white" xml:space="preserve" style="white-space: pre" font-family="Poppins" font-size="7.12032" font-weight="bold" letter-spacing="0.045em"><tspan x="0" y="6.99211">MEMBER&#10;</tspan><tspan x="0" y="15.9921">SINC</tspan></text>
<text transform="matrix(1 0 0 -1 164.479 56.9625)" fill="white" xml:space="preserve" style="white-space: pre" font-family="Poppins" font-size="7.12032" font-weight="bold" letter-spacing="0.045em"><tspan x="0" y="6.99211">VALID&#10;</tspan><tspan x="0" y="15.9921">THRU</tspan></text>
<text transform="matrix(1 0 0 -1 281.964 56.9625)" fill="white" xml:space="preserve" style="white-space: pre" font-family="Poppins" font-size="7.12032" font-weight="bold" letter-spacing="0.045em"><tspan x="0" y="6.99211">SECURITY&#10;</tspan><tspan x="0" y="15.9921">CODE</tspan></text>
<text transform="matrix(1 0 0 -1 52.6903 116.773)" fill="white" xml:space="preserve" style="white-space: pre" font-family="Poppins" font-size="34.1775" font-weight="bold" letter-spacing="0.085em"><tspan x="0" y="37.4621">5125</tspan></text>
<text transform="matrix(1 0 0 -1 155.935 116.773)" fill="white" xml:space="preserve" style="white-space: pre" font-family="Poppins" font-size="34.1775" font-weight="bold" letter-spacing="0.085em"><tspan x="0" y="37.4621">3354</tspan></text>
<text transform="matrix(1 0 0 -1 269.148 116.773)" fill="white" xml:space="preserve" style="white-space: pre" font-family="Poppins" font-size="34.1775" font-weight="bold" letter-spacing="0.085em"><tspan x="0" y="37.4621">1275</tspan></text>
<text transform="matrix(1 0 0 -1 368.12 116.773)" fill="white" xml:space="preserve" style="white-space: pre" font-family="Poppins" font-size="34.1775" font-weight="bold" letter-spacing="0.085em"><tspan x="0" y="37.4621">6347</tspan></text>
<circle r="33.1796" transform="matrix(1 0 0 -1 617.046 85.0176)" fill="#084494"/>
<circle r="33.1796" transform="matrix(1 0 0 -1 657.335 85.0175)" fill="#2A91C8"/>
<path fill-rule="evenodd" clip-rule="evenodd" d="M637.19 58.9476C645.114 64.9428 650.225 74.3899 650.225 85.0173C650.225 95.6447 645.114 105.092 637.19 111.087C629.266 105.092 624.155 95.6447 624.155 85.0173C624.155 74.3899 629.266 64.9428 637.19 58.9476Z" fill="#135FA9"/>
<text transform="matrix(1 0 0 -1 612.347 49.1301)" fill="white" xml:space="preserve" style="white-space: pre" font-family="Sora" font-size="15.6647" font-weight="600" letter-spacing="0.03em"><tspan x="0" y="15.326">cirrus</tspan></text>
<mask id="path-18-inside-1" fill="white">
<path d="M276.268 273.064C276.268 279.472 280.54 286.237 289.797 286.237C299.053 286.237 304.394 280.54 304.394 272.708C304.394 268.436 302.613 266.656 301.545 264.876C300.477 262.74 302.411 260.692 305.106 259.179C297.629 258.111 298.697 259.892 296.561 259.892C294.781 259.892 293.713 258.823 289.797 258.823C281.609 258.823 276.268 264.336 276.268 273.064Z"/>
</mask>
<path d="M276.268 273.064C276.268 279.472 280.54 286.237 289.797 286.237C299.053 286.237 304.394 280.54 304.394 272.708C304.394 268.436 302.613 266.656 301.545 264.876C300.477 262.74 302.411 260.692 305.106 259.179C297.629 258.111 298.697 259.892 296.561 259.892C294.781 259.892 293.713 258.823 289.797 258.823C281.609 258.823 276.268 264.336 276.268 273.064Z" stroke="white" stroke-width="2.84813" mask="url(#path-18-inside-1)"/>
<text transform="matrix(1 0 0 -1 318.99 288.373)" fill="white" xml:space="preserve" style="white-space: pre" font-family="Poppins" font-size="9.96844" font-weight="bold" letter-spacing="0.05em"><tspan x="0" y="11.989">Est&#xe1; com d&#xfa;vida?&#10;</tspan><tspan x="0" y="28.989">Nosso app pode te ajudar.</tspan></text>
<text transform="matrix(1 0 0 -1 24.2091 448.58)" fill="white" xml:space="preserve" style="white-space: pre" font-family="Poppins" font-size="8.54438" font-weight="bold" letter-spacing="0.05em"><tspan x="0" y="10.4905">Issued by Nubank under license by Mastercard International.</tspan></text>
<text transform="matrix(1 0 0 -1 534.736 287.661)" fill="white" xml:space="preserve" style="white-space: pre" font-family="Poppins" font-size="9.96844" font-weight="bold" letter-spacing="0.05em"><tspan x="0" y="11.989">Outside Brazil&#10;</tspan><tspan x="0" y="28.989">1 636 722 8881</tspan></text>
<text transform="matrix(1 0 0 -1 318.99 243.515)" fill="white" xml:space="preserve" style="white-space: pre" font-family="Poppins" font-size="9.96844" font-weight="bold" letter-spacing="0.05em"><tspan x="0" y="11.989">Fale com a gente:&#10;</tspan><tspan x="0" y="28.989">0800 591 2117</tspan></text>
<path fill-rule="evenodd" clip-rule="evenodd" d="M283.389 270.572C284.568 270.572 285.525 271.528 285.525 272.708C285.525 273.888 284.568 274.844 283.389 274.844C282.209 274.844 281.252 273.888 281.252 272.708C281.252 271.528 282.209 270.572 283.389 270.572ZM283.39 271.994C283.783 271.994 284.102 272.313 284.102 272.707C284.102 273.1 283.783 273.419 283.39 273.419C282.996 273.419 282.677 273.1 282.677 272.707C282.677 272.313 282.996 271.994 283.39 271.994Z" fill="white"/>
<path fill-rule="evenodd" clip-rule="evenodd" d="M290.509 270.572C291.689 270.572 292.645 271.528 292.645 272.708C292.645 273.888 291.689 274.844 290.509 274.844C289.329 274.844 288.373 273.888 288.373 272.708C288.373 271.528 289.329 270.572 290.509 270.572ZM290.51 271.994C290.904 271.994 291.223 272.313 291.223 272.707C291.223 273.1 290.904 273.419 290.51 273.419C290.117 273.419 289.798 273.1 289.798 272.707C289.798 272.313 290.117 271.994 290.51 271.994Z" fill="white"/>
<path fill-rule="evenodd" clip-rule="evenodd" d="M289.797 217.17C290.977 217.17 291.933 218.126 291.933 219.306C291.933 220.485 290.977 221.442 289.797 221.442C288.617 221.442 287.661 220.485 287.661 219.306C287.661 218.126 288.617 217.17 289.797 217.17ZM289.797 218.593C290.191 218.593 290.51 218.912 290.51 219.305C290.51 219.699 290.191 220.018 289.797 220.018C289.404 220.018 289.085 219.699 289.085 219.305C289.085 218.912 289.404 218.593 289.797 218.593Z" fill="white"/>
<path d="M286.593 230.698C288.373 233.902 293.357 233.546 294.069 230.342C294.623 227.85 292.504 226.311 289.797 226.07V222.866" stroke="white" stroke-width="1.42406" stroke-linecap="round" stroke-linejoin="round"/>
<path fill-rule="evenodd" clip-rule="evenodd" d="M296.917 270.572C298.097 270.572 299.053 271.528 299.053 272.708C299.053 273.888 298.097 274.844 296.917 274.844C295.737 274.844 294.781 273.888 294.781 272.708C294.781 271.528 295.737 270.572 296.917 270.572ZM296.919 271.994C297.312 271.994 297.631 272.313 297.631 272.707C297.631 273.1 297.312 273.419 296.919 273.419C296.525 273.419 296.206 273.1 296.206 272.707C296.206 272.313 296.525 271.994 296.919 271.994Z" fill="white"/>
<circle r="13.8846" transform="matrix(1 0 0 -1 290.153 226.07)" stroke="white" stroke-width="1.42406"/>
<rect width="149.527" height="93.2761" rx="46.6381" transform="matrix(1 0 0 -1 36.3136 242.091)" fill="url(#paint1_linear)"/>
<circle r="29.5493" transform="matrix(1 0 0 -1 146.323 193.317)" fill="#D9D9D9"/>
<path d="M36.3301 194.385C36.3301 170.888 56.9787 149.171 79.7639 149.171H113.585C137.794 170.532 143.847 213.965 112.517 242.091H78.34C58.0471 242.091 35.6179 221.086 36.3301 194.385Z" fill="url(#paint2_linear)"/>
<path d="M169.686 230.698C147.969 207.201 149.75 181.568 167.55 158.427" stroke="url(#paint3_linear)" stroke-width="0.712032"/>
<defs>
<linearGradient id="paint0_linear" x1="0" y1="0" x2="721.802" y2="455.7" gradientUnits="userSpaceOnUse">
<stop stop-color="#4A156D"/>
<stop offset="1" stop-color="#CC54F0"/>
</linearGradient>
<linearGradient id="paint1_linear" x1="38.4497" y1="-2.02485e-07" x2="135.998" y2="86.1558" gradientUnits="userSpaceOnUse">
<stop stop-color="#C4C4C4"/>
<stop offset="1" stop-color="#F4F1F5"/>
</linearGradient>
<linearGradient id="paint2_linear" x1="68.3714" y1="242.447" x2="112.517" y2="150.595" gradientUnits="userSpaceOnUse">
<stop stop-color="#D7D7D7"/>
<stop offset="1" stop-color="#F5F5F5"/>
</linearGradient>
<linearGradient id="paint3_linear" x1="161.631" y1="203.641" x2="167.327" y2="157.715" gradientUnits="userSpaceOnUse">
<stop stop-color="#D0D0D0"/>
<stop offset="1" stop-color="#F4F4F4"/>
</linearGradient>
</defs>
</svg>
