<svg width="482" height="372" viewBox="0 0 482 372" fill="none" xmlns="http://www.w3.org/2000/svg">
<g id="nubank-logo-purple" clip-path="url(#clip0)">
<g id="nubank-logo-purple_2" filter="url(#filter0_dddddd)">
<path id="nubank-letter-n" d="M219.726 291.863L224.974 293.211L225.145 292.548V291.863H219.726ZM211.621 299.968V305.387H212.254L212.871 305.241L211.621 299.968ZM162.992 299.968V294.548H162.992L162.992 299.968ZM157.589 110.855H163.008H157.589ZM114.363 73.0322L114.363 67.613H114.363L114.363 73.0322ZM52.2258 73.0324V78.4516H52.2258L52.2258 73.0324ZM17.1048 299.968L16.5988 305.363L16.8513 305.387H17.1048V299.968ZM63.0322 299.968L63.0322 294.548H63.0322V299.968ZM119.766 19.0001L119.766 24.4192H119.766L119.766 19.0001ZM76.5562 291.863V46.0163H65.7179V291.863H76.5562ZM76.5562 46.0163C76.5562 33.4567 86.9357 24.4192 100.855 24.4192V13.5809C82.3545 13.5809 65.7179 26.1567 65.7179 46.0163H76.5562ZM214.306 94.6453V291.863H225.145V94.6453H214.306ZM214.477 290.515C213.903 292.749 213.451 293.337 213.244 293.548C213.07 293.725 212.538 294.181 210.371 294.695L212.871 305.241C215.821 304.541 218.695 303.462 220.97 301.149C223.213 298.869 224.255 296.012 224.974 293.211L214.477 290.515ZM211.621 294.548H162.992V305.387H211.621V294.548ZM162.992 294.548C162.011 294.548 161.852 294.413 162.069 294.509C162.212 294.573 162.433 294.7 162.661 294.919C162.888 295.137 163.032 295.359 163.111 295.518C163.23 295.755 163.137 295.718 163.073 294.959C163.012 294.217 163.008 293.284 163.008 291.863H152.169C152.169 293.143 152.165 294.574 152.273 295.859C152.378 297.126 152.623 298.777 153.417 300.365C154.309 302.149 155.743 303.558 157.667 304.413C159.403 305.185 161.271 305.387 162.992 305.387L162.992 294.548ZM163.008 291.863V110.855H152.169V291.863H163.008ZM163.008 110.855C163.008 98.6327 158.391 87.6825 149.752 79.829C141.144 72.0038 128.953 67.6132 114.363 67.613L114.363 78.4514C126.789 78.4515 136.21 82.1658 142.461 87.8487C148.681 93.5033 152.169 101.464 152.169 110.855H163.008ZM114.363 67.613L52.2257 67.6133L52.2258 78.4516L114.363 78.4514L114.363 67.613ZM52.2258 67.6133C39.1174 67.6133 26.9959 71.2524 18.0436 78.6478C8.97245 86.1413 3.58084 97.1578 3.58084 110.855H14.4192C14.4192 100.238 18.4832 92.3428 24.9463 87.0037C31.5283 81.5665 41.0196 78.4516 52.2258 78.4516V67.6133ZM3.58084 110.855V291.863H14.4192V110.855H3.58084ZM3.58084 291.863C3.58084 296.527 4.65783 300.871 8.49476 303.353C10.1701 304.437 11.9198 304.833 13.2113 305.029C14.3642 305.203 15.8753 305.295 16.5988 305.363L17.6108 294.572C17.0502 294.52 16.3882 294.471 15.9752 294.436C15.492 294.395 15.1333 294.358 14.8335 294.313C14.2018 294.217 14.1944 294.132 14.3816 294.253C14.6921 294.454 14.7753 294.694 14.7231 294.557C14.6226 294.294 14.4192 293.525 14.4192 291.863H3.58084ZM17.1048 305.387H63.0322V294.548H17.1048V305.387ZM63.0322 305.387C66.5691 305.387 70.2172 304.499 72.9428 301.773C75.6683 299.048 76.5562 295.4 76.5562 291.863H65.7179C65.7179 292.778 65.6016 293.359 65.4894 293.695C65.386 294.005 65.2923 294.096 65.2789 294.11C65.2655 294.123 65.1746 294.217 64.8644 294.32C64.5279 294.432 63.9476 294.548 63.0322 294.548L63.0322 305.387ZM100.855 24.4192C117.868 24.4192 108.959 24.4191 119.766 24.4192L119.766 13.5809C108.96 13.5807 117.867 13.5809 100.855 13.5809V24.4192ZM119.766 24.4192C148.144 24.4197 171.906 34.7335 188.534 48.8027C205.319 63.006 214.306 80.53 214.306 94.6453H225.145C225.145 76.3413 213.87 56.0432 195.535 40.5289C177.041 24.8806 150.824 13.5814 119.766 13.5809L119.766 24.4192Z" fill="url(#paint0_linear)"/>
<path id="nubank-letter-u" d="M261.609 81.1372L256.36 79.7892L256.19 80.4524V81.1372H261.609ZM269.714 73.0323V67.6132H269.08L268.464 67.7594L269.714 73.0323ZM318.343 73.0323V78.4515H318.343L318.343 73.0323ZM323.746 262.145H318.327H323.746ZM366.972 299.968L366.972 305.387H366.972L366.972 299.968ZM429.109 299.968V294.548H429.109L429.109 299.968ZM464.23 73.0323L464.736 67.6369L464.483 67.6132H464.23V73.0323ZM418.302 73.0323L418.302 78.4515H418.302V73.0323ZM361.568 354L361.569 348.581H361.569L361.568 354ZM404.778 81.1372V326.984H415.617V81.1372H404.778ZM404.778 326.984C404.778 339.543 394.399 348.581 380.48 348.581V359.419C398.98 359.419 415.617 346.843 415.617 326.984H404.778ZM267.028 278.355V81.1372H256.19V278.355H267.028ZM266.858 82.4851C267.431 80.2512 267.883 79.6627 268.091 79.452C268.265 79.2748 268.797 78.8191 270.964 78.3053L268.464 67.7594C265.514 68.4587 262.64 69.5379 260.364 71.8512C258.122 74.1309 257.079 76.9883 256.36 79.7892L266.858 82.4851ZM269.714 78.4515H318.343V67.6132H269.714V78.4515ZM318.343 78.4515C319.323 78.4515 319.482 78.5872 319.266 78.491C319.122 78.4274 318.901 78.3 318.674 78.0814C318.446 77.8631 318.303 77.6408 318.223 77.4821C318.105 77.2445 318.198 77.2819 318.261 78.0414C318.323 78.7826 318.327 79.7162 318.327 81.1372H329.165C329.165 79.8565 329.169 78.4262 329.062 77.1413C328.956 75.8745 328.712 74.2233 327.918 72.635C327.026 70.8513 325.592 69.4421 323.667 68.5868C321.931 67.8152 320.064 67.6132 318.343 67.6132L318.343 78.4515ZM318.327 81.1372V262.145H329.165V81.1372H318.327ZM318.327 262.145C318.327 274.367 322.944 285.318 331.582 293.171C340.19 300.996 352.381 305.387 366.972 305.387L366.972 294.549C354.546 294.549 345.124 290.834 338.873 285.151C332.653 279.497 329.165 271.536 329.165 262.145H318.327ZM366.972 305.387L429.109 305.387L429.109 294.548L366.972 294.549L366.972 305.387ZM429.109 305.387C442.217 305.387 454.339 301.748 463.291 294.352C472.362 286.859 477.754 275.842 477.754 262.145H466.915C466.915 272.762 462.851 280.657 456.388 285.996C449.806 291.434 440.315 294.548 429.109 294.548V305.387ZM477.754 262.145V81.1372H466.915V262.145H477.754ZM477.754 81.1372C477.754 76.4733 476.677 72.1287 472.84 69.6467C471.164 68.563 469.415 68.1667 468.123 67.9712C466.97 67.7967 465.459 67.7047 464.736 67.6369L463.724 78.4278C464.284 78.4804 464.946 78.5294 465.359 78.5641C465.842 78.6048 466.201 78.642 466.501 78.6874C467.133 78.783 467.14 78.868 466.953 78.7469C466.642 78.5461 466.559 78.3063 466.611 78.4429C466.712 78.706 466.915 79.4748 466.915 81.1372H477.754ZM464.23 67.6132H418.302V78.4515H464.23V67.6132ZM418.302 67.6132C414.765 67.6132 411.117 68.5011 408.392 71.2266C405.666 73.9521 404.778 77.6002 404.778 81.1372H415.617C415.617 80.2218 415.733 79.6414 415.845 79.305C415.948 78.9948 416.042 78.9038 416.056 78.8905C416.069 78.8771 416.16 78.7834 416.47 78.68C416.807 78.5678 417.387 78.4515 418.302 78.4515L418.302 67.6132ZM380.48 348.581C363.467 348.581 372.375 348.581 361.569 348.581L361.568 359.419C372.375 359.419 363.468 359.419 380.48 359.419V348.581ZM361.569 348.581C333.191 348.58 309.428 338.266 292.801 324.197C276.015 309.994 267.028 292.47 267.028 278.355H256.19C256.19 296.659 267.465 316.957 285.8 332.471C304.293 348.119 330.511 359.419 361.568 359.419L361.569 348.581Z" fill="url(#paint1_linear)"/>
</g>
</g>
<defs>
<filter id="filter0_dddddd" x="-32.9985" y="0.0329132" width="547.332" height="418.997" filterUnits="userSpaceOnUse" color-interpolation-filters="sRGB">
<feFlood flood-opacity="0" result="BackgroundImageFix"/>
<feColorMatrix in="SourceAlpha" type="matrix" values="0 0 0 0 0 0 0 0 0 0 0 0 0 0 0 0 0 0 127 0"/>
<feOffset dy="0.637339"/>
<feGaussianBlur stdDeviation="0.506122"/>
<feColorMatrix type="matrix" values="0 0 0 0 0 0 0 0 0 0 0 0 0 0 0 0 0 0 0.0337375 0"/>
<feBlend mode="normal" in2="BackgroundImageFix" result="effect1_dropShadow"/>
<feColorMatrix in="SourceAlpha" type="matrix" values="0 0 0 0 0 0 0 0 0 0 0 0 0 0 0 0 0 0 127 0"/>
<feOffset dy="1.53161"/>
<feGaussianBlur stdDeviation="1.21628"/>
<feColorMatrix type="matrix" values="0 0 0 0 0 0 0 0 0 0 0 0 0 0 0 0 0 0 0.0484671 0"/>
<feBlend mode="normal" in2="effect1_dropShadow" result="effect2_dropShadow"/>
<feColorMatrix in="SourceAlpha" type="matrix" values="0 0 0 0 0 0 0 0 0 0 0 0 0 0 0 0 0 0 127 0"/>
<feOffset dy="2.88389"/>
<feGaussianBlur stdDeviation="2.29015"/>
<feColorMatrix type="matrix" values="0 0 0 0 0 0 0 0 0 0 0 0 0 0 0 0 0 0 0.06 0"/>
<feBlend mode="normal" in2="effect2_dropShadow" result="effect3_dropShadow"/>
<feColorMatrix in="SourceAlpha" type="matrix" values="0 0 0 0 0 0 0 0 0 0 0 0 0 0 0 0 0 0 127 0"/>
<feOffset dy="5.14437"/>
<feGaussianBlur stdDeviation="4.08524"/>
<feColorMatrix type="matrix" values="0 0 0 0 0 0 0 0 0 0 0 0 0 0 0 0 0 0 0.0715329 0"/>
<feBlend mode="normal" in2="effect3_dropShadow" result="effect4_dropShadow"/>
<feColorMatrix in="SourceAlpha" type="matrix" values="0 0 0 0 0 0 0 0 0 0 0 0 0 0 0 0 0 0 127 0"/>
<feOffset dy="9.62198"/>
<feGaussianBlur stdDeviation="7.64098"/>
<feColorMatrix type="matrix" values="0 0 0 0 0 0 0 0 0 0 0 0 0 0 0 0 0 0 0.0862625 0"/>
<feBlend mode="normal" in2="effect4_dropShadow" result="effect5_dropShadow"/>
<feColorMatrix in="SourceAlpha" type="matrix" values="0 0 0 0 0 0 0 0 0 0 0 0 0 0 0 0 0 0 127 0"/>
<feOffset dy="23.0314"/>
<feGaussianBlur stdDeviation="18.2897"/>
<feColorMatrix type="matrix" values="0 0 0 0 0 0 0 0 0 0 0 0 0 0 0 0 0 0 0.12 0"/>
<feBlend mode="normal" in2="effect5_dropShadow" result="effect6_dropShadow"/>
<feBlend mode="normal" in="SourceGraphic" in2="effect6_dropShadow" result="shape"/>
</filter>
<linearGradient id="paint0_linear" x1="114.363" y1="19" x2="114.363" y2="299.968" gradientUnits="userSpaceOnUse">
<stop stop-color="#7F2FA3"/>
<stop offset="1" stop-color="#A340C6"/>
</linearGradient>
<linearGradient id="paint1_linear" x1="366.972" y1="354" x2="366.972" y2="73.0323" gradientUnits="userSpaceOnUse">
<stop stop-color="#7F2FA3"/>
<stop offset="1" stop-color="#A340C6"/>
</linearGradient>
<clipPath id="clip0">
<rect width="482" height="372" fill="white"/>
</clipPath>
</defs>
</svg>
